<?xml version="1.0" encoding="UTF-8"?>
<svg xmlns="http://www.w3.org/2000/svg" id="Layer_1" version="1.1" viewBox="0 0 512 512">
  <defs>
    <style>
      .st0 {
        fill: #fff;
      }
    </style>
  </defs>
  <path class="st0" d="M512,277.5v-43.1l-47.7-16.3c-2.1-11.5-5.1-22.7-9-33.5l33.1-38-21.5-37.3-49.5,9.7c-7.5-8.8-15.7-17-24.5-24.5l9.7-49.5-37.3-21.5-38,33.1c-10.8-3.9-22-6.9-33.5-9L277.5,0h-43.1l-16.3,47.7c-11.5,2.1-22.7,5.1-33.5,9l-38-33.1-37.3,21.5,9.7,49.5c-8.8,7.5-17,15.7-24.5,24.5l-49.5-9.7-21.5,37.3,33.1,38c-3.9,10.8-6.9,22-9,33.5L0,234.5v43.1l47.7,16.3c2.1,11.5,5.1,22.7,9,33.5l-33.1,38,21.5,37.3,49.5-9.7c7.5,8.8,15.7,17,24.5,24.5l-9.7,49.5,37.3,21.5,38-33.1c10.8,3.9,22,6.9,33.5,9l16.3,47.7h43.1l16.3-47.7c11.5-2.1,22.7-5.1,33.5-9l38,33.1,37.3-21.5-9.7-49.5c8.8-7.5,17-15.7,24.5-24.5l49.5,9.7,21.5-37.3-33.1-38c3.9-10.8,6.9-22,9-33.5l47.7-16.3ZM256,407.1c-83.5,0-151.1-67.7-151.1-151.1S172.5,104.9,256,104.9s151.1,67.7,151.1,151.1-67.7,151.1-151.1,151.1Z"></path>
</svg>
