<?xml version="1.0" encoding="UTF-8"?>
<svg xmlns="http://www.w3.org/2000/svg" id="Layer_1" version="1.1" viewBox="0 0 2790.8 980">
  <defs>
    <style>
      .st0 {
        fill: #fff;
      }
    </style>
  </defs>
  <path class="st0" d="M428.6,980h-193.6l-.4-83.8h-120.1c0,.1-61.8-117.8-61.8-117.8l45.3-105.5-18-83.9L.1,569v-158c-.1,0,77.2-11,77.2-11l17.5-100.6-49.6-104.9,58.2-102.3,120.1-.2L234.6,0l187,7.2.2,125.9,23-25.9h120.6l53.9,120.2-19.2,68.2-243,.2c-1.7-4.2-3.3-9-5.1-12.9-10.3-23.2-27.9-38.4-51.9-45.6-19.1-5.7-38.2-5.5-56.7,4.1-31.7,16.3-55.4,40.4-70.1,72.6-6.8,14.9-11.4,30.8-15.9,46.6-5,17.7-9.2,35.7-12.8,53.8-2.4,12-3.2,24.4-4.3,36.6-1,11.8-1.9,23.6-1.9,35.4,0,32.8,3.8,65.4,11,97.4,6.1,27.2,15.1,53.3,25.7,79,10,24.2,26.7,43.1,47.4,58.7,11.2,8.5,23.5,14.4,37.4,16.9,21.6,4.1,44,.8,63.5-9.2,13.1-6.6,23.6-16.1,32.3-27.7.9-1.2,1.8-2.4,2.9-3.5l233.1-1.6,28.6,82.1-48,117.5h-115.4l-28-34s-.3,78.7-.3,118ZM325.7,973.3l8.5-130.6s31-29.8,44.6-42.8c1.3-1.2,2.6-2.4,4.2-3.8,24.7,30.3,74.1,90.9,74.1,90.9l47.3-106.1-23.5-68h-114.3c-6,7.5-12.7,14.3-20,20.4-9.8,7.8-21.4,13-33.5,16.7-12.1,3.6-24.7,5.4-37.4,5.3-15.1,0-29.7-2.7-43-9.6-22.6-11.8-41.2-28.5-56.1-49.4-12.9-18-20.7-38.4-27.5-59-6.6-19.8-11.6-40.2-16.4-60.5-4.7-19.9-7.3-40.3-8-60.7-.6-17.3-.6-34.6-.3-51.9.2-9.1.9-18.3,2.2-27.3,1.9-14.6,3.5-29.4,6.9-43.8,5-21,10.7-41.8,17.5-62.3,4.3-12.9,10-25.4,16.8-37.2,15.6-27.2,38.1-47.7,65.6-62.8,15.8-8.8,34-12.3,52-10.1,22.4,2.5,42.1,10.8,58.5,26.4,10.1,9.8,18,21.4,23.5,34.4h106.8c0,.1,17.7-53.8,17.7-53.8l-47.5-110.5-68.5,79.7-51.4-48.7-6.1-137.8-77.7-2.7-15.1,130-59,42.5-61-77.9-52.2,93.1,48.8,103.4s-10.3,58-14.9,84c-1.4,7.8-2.3,16.4-3.7,24.2-24.1,3.4-76.5,10.9-76.5,10.9v147l79,20.1,18.9,89.4-45.3,104.5s37.4,69.9,54.9,102.8c.8,1.6,1.8,3.1,3.2,5.5,20.3-32.3,40.4-63.5,60.4-95.2,1.8,1.3,64.6,51.2,64.6,51.2v131c0,0,83.3-.9,83.3-.9ZM450.5,114.6l47.1,110.9,112.6-.2-49.4-110.7h-110.3ZM323.4,10.8l9,136.4,76.4.9,4.9-5.8s0-126.2-.2-128.1l-90-3.3ZM334.8,973.3s57,.6,86.3.6c0-2.5-.1-120.8-.1-120.8l-8.1-9.9-70.4-.2-7.7,130.3ZM610.8,785h-100.1l-47.7,105.1h104.9l43-105.1ZM487.3,712.9l23.4,65h102.5l-23.1-65.6-102.8.6ZM123.3,890.1l111.2-.2-.6-45-54.1-44-56.5,89.2ZM482.8,281.6h114.4c0-.1,13.5-49.2,13.5-49.2h-113.3c0,.1-14.6,49.2-14.6,49.2ZM168.4,172c16.9-12.7,51.4-38.9,51.4-38.9l3-33.3h-111.6c0,0,38,47.9,57.2,72.2ZM340.1,154l35.8,33.7,28.9-33.9h-64.7ZM407.6,836.8l-24.5-30.4-30.7,30.4h55.2Z"></path>
  <g>
    <path class="st0" d="M303.1,671v-348h107.4l64.5,237.4,63.8-237.4h107.6v348h-66.7v-274l-70.5,274h-69.1l-70.3-274v274h-66.7Z"></path>
    <path class="st0" d="M862.4,590.8l67.9,11.2c-8.7,24.4-22.5,42.9-41.3,55.7-18.8,12.7-42.4,19.1-70.7,19.1-44.8,0-77.9-14.3-99.4-43-17-22.9-25.5-51.9-25.5-86.9s11.2-74.5,33.5-98.2c22.3-23.7,50.5-35.5,84.6-35.5s68.5,12.4,90.7,37.2c22.2,24.8,32.7,62.8,31.7,113.9h-170.6c.5,19.8,6,35.2,16.5,46.2,10.5,11,23.6,16.5,39.3,16.5,10.7,0,19.6-2.9,26.9-8.6,7.3-5.7,12.8-14.9,16.5-27.5ZM866.3,523.4c-.5-19.3-5.6-34-15.3-44-9.1-9.8-22-15.3-35.4-15.1-14.9,0-27.2,5.3-36.9,15.9s-14.5,25-14.3,43.2h101.9Z"></path>
    <path class="st0" d="M1222.5,493.4l-67.2,11.9c-2.3-13.1-7.4-23-15.4-29.7-8-6.7-18.4-10-31.1-10-17,0-30.5,5.7-40.6,17.2-10.1,11.5-15.1,30.7-15.2,57.6,0,29.9,5.1,51,15.4,63.4,10.3,12.4,24,18.5,41.3,18.5,12.9,0,23.5-3.6,31.8-10.8,8.2-7.2,14.1-19.6,17.5-37.2l66.9,11.2c-7,30.1-20.3,52.8-40,68.1-19.7,15.3-46.1,23-79.3,23-37.7,0-67.7-11.6-90.1-34.9-22.4-23.3-33.6-55.5-33.6-96.6,0-41.6,11.2-74,33.7-97.2,22.5-23.2,52.9-34.8,91.2-34.8,31.3,0,56.3,6.6,74.8,19.8s31.8,33.4,39.8,60.4Z"></path>
    <path class="st0" d="M1341.3,323v128c22-25.2,48.2-37.8,78.8-37.8,14.6-.2,29.1,2.7,42.4,8.6,12.6,5.7,22.1,13,28.5,21.8,6.3,8.8,10.8,18.8,13.1,29.4,2.3,10.8,3.5,27.5,3.5,50.1v147.8h-68.1v-133.2c0-26.4-1.3-43.2-3.9-50.3-2.5-7-7.3-13-13.7-17-6.6-4.2-14.8-6.3-24.6-6.3-10.7-.2-21.1,2.6-30.3,8.1-8.9,5.4-15.4,13.5-19.5,24.4-4.1,10.9-6.2,26.9-6.2,48.1v126.3h-68.1v-348.1h68.1Z"></path>
    <path class="st0" d="M1555.8,578.2v-66.7h133.8v66.7h-133.8Z"></path>
    <path class="st0" d="M1756.2,671v-289.2h-105.5v-58.9h282.4v58.9h-105.3v289.2h-71.7Z"></path>
    <path class="st0" d="M2068.8,590.8l67.9,11.2c-8.7,24.4-22.5,42.9-41.3,55.7-18.8,12.7-42.4,19.1-70.7,19.1-44.8,0-77.9-14.3-99.4-43-17-22.9-25.5-51.9-25.5-86.9,0-41.8,11.2-74.5,33.5-98.2,22.3-23.7,50.5-35.5,84.6-35.5s68.5,12.4,90.7,37.2c22.1,24.8,32.7,62.8,31.7,113.9h-170.6c.5,19.8,6,35.2,16.5,46.2,10.5,11,23.6,16.5,39.3,16.5,10.7,0,19.6-2.9,26.9-8.6,7.3-5.7,12.8-14.9,16.5-27.5ZM2072.7,523.4c-.5-19.3-5.6-34-15.3-44-9.1-9.8-22-15.3-35.4-15.1-14.9,0-27.1,5.3-36.9,15.9-9.7,10.6-14.5,25-14.3,43.2h101.9Z"></path>
    <path class="st0" d="M2427.3,493.4l-67.2,11.9c-2.3-13.1-7.4-23-15.4-29.7-8-6.7-18.4-10-31.1-10-17,0-30.5,5.7-40.6,17.2-10.1,11.5-15.1,30.7-15.2,57.6,0,29.9,5.1,51,15.4,63.4,10.3,12.4,24,18.5,41.3,18.5,12.9,0,23.5-3.6,31.7-10.8,8.2-7.2,14.1-19.6,17.5-37.2l66.9,11.2c-6.9,30.1-20.3,52.8-40,68.1-19.7,15.3-46.1,23-79.3,23-37.7,0-67.7-11.6-90.1-34.9-22.4-23.3-33.6-55.5-33.6-96.6,0-41.6,11.2-74,33.7-97.2,22.5-23.2,52.8-34.8,91.1-34.8,31.4,0,56.3,6.6,74.8,19.8,18.5,13.2,31.8,33.4,39.9,60.4Z"></path>
    <path class="st0" d="M2544.5,323v128c22-25.2,48.2-37.8,78.8-37.8,14.6-.2,29.1,2.7,42.4,8.6,12.6,5.7,22.1,13,28.5,21.8,6.3,8.8,10.8,18.8,13.1,29.4,2.3,10.8,3.5,27.5,3.5,50.1v147.8h-68.1v-133.2c0-26.4-1.3-43.2-3.9-50.3-2.5-7-7.4-13-13.7-17-6.6-4.2-14.8-6.3-24.6-6.3-10.7-.2-21.1,2.6-30.3,8.1-8.9,5.4-15.4,13.5-19.5,24.4-4.1,10.9-6.2,26.9-6.2,48.1v126.3h-68.1v-348.1h68.1Z"></path>
  </g>
  <g>
    <path class="st0" d="M642.8,699.2h36.8l14.2,81.2,14.1-81.2h36.8v133.5h-23v-101.8l-17.7,101.8h-20.8l-17.6-101.8v101.8h-22.9v-133.5Z"></path>
    <path class="st0" d="M822.7,810.7h-31.8l-4.4,22h-28.6l34.1-133.5h30.6l34.1,133.5h-29.3l-4.5-22ZM816.9,781.9l-10-48-9.9,48h19.9Z"></path>
    <path class="st0" d="M923.7,778.1l24.6,10.9c-1.2,8.8-3.9,17.4-7.8,25.4-3,6.2-7.6,11.5-13.2,15.4-5.3,3.5-12,5.2-20.1,5.2s-17.9-2.1-24.1-6.3-11.6-11.6-16.2-22.2c-4.5-10.6-6.8-24.2-6.8-40.8s4-39,12-50.9c8-11.9,19.2-17.8,33.8-17.8,11.4,0,20.4,3.4,26.9,10.2,6.5,6.8,11.4,17.2,14.5,31.3l-24.7,8.1c-.6-3.1-1.5-6.1-2.7-8.9-1.3-2.8-3.3-5.3-5.8-7.3-2.2-1.7-4.9-2.6-7.6-2.5-6.3,0-11.2,3.8-14.5,11.3-2.6,5.6-3.8,14.3-3.8,26.3,0,14.8,1.5,24.9,4.6,30.4,3,5.5,7.3,8.2,12.9,8.2,5,.2,9.6-2.3,12.2-6.6,2.8-4.5,4.7-10.9,6-19.4Z"></path>
    <path class="st0" d="M962,699.2h28v46.7h30.6v-46.7h28.1v133.5h-28.1v-54h-30.6v54h-28v-133.5Z"></path>
    <path class="st0" d="M1064.4,699.2h28.1v133.5h-28.1v-133.5Z"></path>
    <path class="st0" d="M1105.7,699.2h26.2l34.1,73.8v-73.8h26.4v133.5h-26.4l-33.9-73.3v73.3h-26.4v-133.5Z"></path>
    <path class="st0" d="M1208.2,699.2h75.1v28.5h-47v21.2h43.6v27.2h-43.6v26.3h48.4v30.2h-76.4v-133.4Z"></path>
    <path class="st0" d="M1338.6,699.2h85.2v33h-28.5v100.5h-28.1v-100.5h-28.6v-33Z"></path>
    <path class="st0" d="M1437.2,766.1c0-21.8,4.1-38.7,12.4-50.9,8.2-12.1,19.7-18.2,34.4-18.2,15.1,0,26.7,6,34.9,17.9,8.2,11.9,12.2,28.6,12.2,50.1,0,15.6-1.8,28.4-5.3,38.3-3.5,10-8.7,17.7-15.5,23.3-6.7,5.6-15.1,8.3-25.1,8.3s-18.7-2.4-25.4-7.2c-6.7-4.8-12.1-12.4-16.3-22.8-4.2-10.4-6.3-23.4-6.2-39ZM1465.3,766.2c0,13.5,1.7,23.2,5.1,29.1,3.4,5.9,8,8.9,13.9,8.8,6,0,10.7-2.9,14-8.6,3.3-5.8,5-16.1,5-31,0-12.6-1.7-21.8-5.2-27.5-3.4-5.8-8.1-8.7-14-8.7-5.6,0-10.2,2.9-13.6,8.8-3.4,5.9-5.1,15.6-5.1,29.2Z"></path>
    <path class="st0" d="M1544.3,766.1c0-21.8,4.1-38.7,12.4-50.9,8.3-12.1,19.7-18.2,34.4-18.2,15.1,0,26.7,6,34.9,17.9,8.2,11.9,12.2,28.6,12.2,50.1,0,15.6-1.8,28.4-5.3,38.3-3.5,10-8.7,17.7-15.4,23.3-6.7,5.6-15.1,8.3-25.2,8.3s-18.7-2.4-25.4-7.2c-6.7-4.8-12.1-12.4-16.3-22.8-4.2-10.4-6.3-23.4-6.3-39ZM1572.3,766.2c0,13.5,1.7,23.2,5.1,29.1,3.4,5.9,8,8.9,13.9,8.8,6,0,10.7-2.9,14-8.6,3.3-5.8,4.9-16.1,4.9-31s-1.7-21.8-5.2-27.5c-3.4-5.8-8.1-8.7-14-8.7-5.7,0-10.2,2.9-13.6,8.8-3.4,5.9-5.1,15.6-5.1,29.2Z"></path>
    <path class="st0" d="M1651.9,699.2h28v100.6h43.7v32.9h-71.7v-133.5Z"></path>
    <path class="st0" d="M1779.7,788.6l26.6-2.5c.6,6.4,1.8,11.2,3.5,14.5,2.9,5.4,7,8.1,12.4,8.1,3.6.2,7-1.4,9.3-4.2,4.3-5.5,4.3-13.3.2-18.9-2.1-2.7-6.8-5.3-14.3-7.7-12.3-4.1-21-9.5-26.3-16.2-5.2-6.7-7.9-15.3-7.9-25.8,0-6.7,1.3-13.3,4-19.4,2.5-5.9,6.8-10.9,12.2-14.4,5.4-3.5,12.9-5.2,22.3-5.2s20.4,3.2,26.4,9.5c6,6.3,9.7,16.4,10.9,30.3l-26.4,2.3c-.7-6-2.2-10.4-4.4-13.1-2.3-2.7-5.7-4.3-9.3-4.1-2.8-.2-5.5.9-7.4,3.1-1.7,2.1-2.5,4.7-2.5,7.4,0,2.1.7,4.1,2,5.7,1.3,1.8,4.5,3.4,9.4,4.9,12.2,3.9,21,7.8,26.3,11.8,5.1,3.8,9.1,8.9,11.6,14.8,2.5,6.3,3.7,13,3.6,19.8,0,8.1-1.6,16.2-4.8,23.7-2.8,6.7-7.4,12.4-13.4,16.5-5.8,3.7-13.1,5.6-21.8,5.6-15.4,0-26.1-4.4-32-13.1-5.9-8.7-9.3-19.9-10-33.3Z"></path>
    <path class="st0" d="M1874.6,699.2h46.6c10.1,0,17.7,3.5,22.8,10.6,5.1,7.1,7.6,17.2,7.6,30.3s-2.8,24-8.3,31.6c-5.5,7.6-13.9,11.4-25.1,11.4h-15.3v49.5h-28.1v-133.4ZM1902.7,756.1h6.9c5.4,0,9.2-1.3,11.4-4.1,2.3-3,3.4-6.8,3.3-10.6.1-3.8-.9-7.5-2.8-10.7-1.9-2.9-5.5-4.4-10.7-4.4h-7.9v29.8Z"></path>
    <path class="st0" d="M1964.8,699.2h75.1v28.5h-47v21.2h43.6v27.2h-43.6v26.3h48.4v30.2h-76.4v-133.4Z"></path>
    <path class="st0" d="M2119.6,778.1l24.6,10.9c-1.2,8.8-3.9,17.4-7.8,25.4-3,6.2-7.6,11.5-13.2,15.4-5.3,3.5-12,5.2-20.1,5.2s-17.9-2.1-24.1-6.3-11.6-11.6-16.2-22.2c-4.5-10.6-6.8-24.2-6.8-40.8,0-22,4-39,12-50.9,8-11.9,19.3-17.8,33.9-17.8,11.4,0,20.4,3.4,26.9,10.2,6.5,6.8,11.4,17.2,14.5,31.3l-24.7,8.1c-.6-3.1-1.5-6.1-2.7-8.9-1.3-2.8-3.3-5.3-5.8-7.3-2.2-1.7-4.9-2.6-7.6-2.5-6.3,0-11.2,3.8-14.5,11.3-2.6,5.6-3.8,14.3-3.8,26.3s1.5,24.9,4.6,30.4c3.1,5.5,7.3,8.3,12.8,8.3,5,.2,9.6-2.3,12.2-6.6,2.7-4.5,4.7-11,6-19.4Z"></path>
    <path class="st0" d="M2160.4,699.2h28.1v133.5h-28.1v-133.5Z"></path>
    <path class="st0" d="M2267.2,810.7h-31.7l-4.4,22h-28.6l34-133.5h30.6l34.1,133.5h-29.3l-4.6-22ZM2261.4,781.8l-10-48-9.9,48h19.9Z"></path>
    <path class="st0" d="M2314.3,699.2h28v100.6h43.7v32.9h-71.7v-133.5Z"></path>
    <path class="st0" d="M2401.5,699.2h28.1v133.5h-28.1v-133.5Z"></path>
    <path class="st0" d="M2444.9,788.6l26.6-2.5c.6,6.4,1.8,11.2,3.5,14.5,2.9,5.4,7,8.1,12.4,8.1,3.6.2,7-1.4,9.3-4.2,4.3-5.6,4.3-13.3.2-18.9-2.1-2.7-6.8-5.3-14.3-7.7-12.3-4.1-21-9.5-26.3-16.2-5.2-6.7-7.9-15.3-7.9-25.8,0-6.7,1.3-13.3,4-19.4,2.5-5.9,6.8-10.9,12.2-14.4,5.4-3.5,12.9-5.2,22.3-5.2s20.4,3.2,26.4,9.5c6,6.3,9.7,16.4,10.9,30.3l-26.4,2.3c-.7-6-2.2-10.4-4.4-13.1-2.3-2.7-5.7-4.3-9.3-4.1-2.8-.2-5.5.9-7.4,3.1-1.7,2.1-2.6,4.7-2.5,7.4,0,2.1.7,4.1,2,5.7,1.3,1.8,4.5,3.4,9.4,4.9,12.2,3.9,21,7.8,26.3,11.8,5.1,3.8,9.1,8.9,11.6,14.8,2.5,6.3,3.7,13,3.6,19.8,0,8.1-1.6,16.2-4.8,23.7-2.8,6.7-7.4,12.4-13.5,16.5-5.8,3.7-13.1,5.6-21.8,5.6-15.4,0-26.1-4.4-32-13.1-5.9-8.7-9.3-19.9-10-33.3Z"></path>
    <path class="st0" d="M2542,699.2h85.2v33h-28.5v100.5h-28v-100.5h-28.6v-33Z"></path>
    <path class="st0" d="M2639.4,788.6l26.7-2.5c.6,6.4,1.7,11.2,3.5,14.5,2.9,5.4,7,8.1,12.4,8.1,3.6.2,7-1.4,9.3-4.2,4.3-5.6,4.3-13.3.2-18.9-2.1-2.7-6.8-5.3-14.3-7.7-12.3-4.1-21-9.5-26.3-16.2-5.2-6.7-7.9-15.3-7.9-25.8,0-6.7,1.3-13.3,4-19.4,2.5-5.9,6.8-10.9,12.2-14.4,5.4-3.5,12.9-5.2,22.3-5.2s20.4,3.2,26.4,9.5c6,6.3,9.7,16.4,10.8,30.3l-26.4,2.3c-.7-6-2.2-10.4-4.4-13.1-2.3-2.7-5.7-4.3-9.3-4.1-2.8-.2-5.5.9-7.4,3.1-1.7,2.1-2.6,4.7-2.5,7.4,0,2.1.7,4.1,2,5.7,1.3,1.8,4.5,3.4,9.4,4.9,12.2,3.9,21,7.8,26.3,11.8,5.1,3.8,9.1,8.9,11.6,14.8,2.5,6.3,3.7,13,3.6,19.8,0,8.1-1.6,16.2-4.8,23.7-2.8,6.7-7.5,12.4-13.5,16.4-5.8,3.7-13.1,5.6-21.8,5.6-15.4,0-26.1-4.4-32-13.1-5.9-8.7-9.3-19.8-10-33.3Z"></path>
  </g>
</svg>
