<svg xmlns="http://www.w3.org/2000/svg" viewBox="0 0 100 100">
  <!-- Angular navy plate, echoing the Mech-Tech logo badge -->
  <path d="M4 22 Q4 10 16 10 H78 L96 26 V78 Q96 90 84 90 H14 Q4 90 4 78 Z" fill="#0B2C6B"/>
  <g fill="none" stroke="#FFFFFF" stroke-width="4" stroke-linejoin="round" stroke-linecap="round" transform="translate(50 50) scale(0.62) translate(-50 -50)">
    <path d="M78.4 72.2 L75.7 75.2 L81.6 83.4 L76.7 87.5 L69.8 80.1 L66.2 82.1 L56.0 85.5 L55.9 95.6 L49.6 96.0 L48.3 86.0 L44.2 85.5 L33.9 82.2 L28.0 90.4 L22.6 86.9 L27.5 78.1 L24.5 75.4 L18.1 66.6 L8.4 69.7 L6.1 63.8 L15.3 59.5 L14.4 55.5 L14.4 44.7 L4.8 41.5 L6.4 35.4 L16.3 37.3 L18.0 33.5 L24.3 24.8 L18.4 16.6 L23.3 12.5 L30.2 19.9 L33.8 17.9 L44.0 14.5 L44.1 4.4 L50.4 4.0 L51.7 14.0 L55.8 14.5 L66.1 17.8 L72.0 9.6 L77.4 13.1 L72.5 21.9 L75.5 24.6 L78.4 27.8"/>
    <path d="M60.9 63 A17 17 0 1 1 60.9 37"/>
  </g>
</svg>
