<svg version="1.1" id="Layer_1" xmlns="http://www.w3.org/2000/svg" xmlns:xlink="http://www.w3.org/1999/xlink" x="0px" y="0px"
	 viewBox="0 0 480 500" style="enable-background:new 0 0 480 500;" xml:space="preserve">
<g>
	<path d="M6.78,163.83l79.19-109c3.97-5.47,9.57-9.54,16-11.62L230.11,1.57c6.43-2.09,13.35-2.09,19.78,0L378.03,43.2
		c6.43,2.09,12.03,6.16,16,11.62l79.19,109c3.97,5.47,6.11,12.05,6.11,18.81v134.73c0,6.76-2.14,13.34-6.11,18.81l-79.19,109
		c-3.97,5.47-9.57,9.54-16,11.62l-128.14,41.63c-6.43,2.09-13.35,2.09-19.78,0L101.97,456.8c-6.43-2.09-12.03-6.16-16-11.62
		l-79.19-109c-3.97-5.47-6.11-12.05-6.11-18.81V182.63C0.67,175.88,2.81,169.29,6.78,163.83z"/>
</g>
</svg>
