<?xml version="1.0" encoding="UTF-8"?>
<svg xmlns="http://www.w3.org/2000/svg" xmlns:xlink="http://www.w3.org/1999/xlink" viewBox="0 0 198 70">
  <defs>
    <clipPath id="clip-path">
      <path d="M62.8,46.37l-.95-2.56v1.82a2.14,2.14,0,0,1-2.13,2.13H52.83a2.13,2.13,0,0,1-2.13-2.13V22.89a2.13,2.13,0,0,1,2.13-2.13h9.51a2.14,2.14,0,0,1,2,1.4l2,5.43L68,23.17a35,35,0,1,0-.35,24.59H64.79A2.13,2.13,0,0,1,62.8,46.37Z" style="fill:none"></path>
    </clipPath>
  </defs>
  <g id="Layer_1" data-name="Layer 1">
    <g id="mech_air_logo" data-name="mech air logo">
      <g id="fan_blades" data-name="fan blades">
        <g style="clip-path:url(#clip-path)">
          <path d="M47.66,16.59a45.92,45.92,0,0,1-.88,9.32C44,25.91,40.4,25,37.65,25c-.1-4.75-.11-11-.61-15.73A39.55,39.55,0,0,0,35,0a12.54,12.54,0,0,1,6,1.66,22.9,22.9,0,0,1,5.74,5.11A56.56,56.56,0,0,1,47.66,16.59ZM46.48,7.07a20.34,20.34,0,0,0-4.27-3.94A12.6,12.6,0,0,0,36.47.88,39.59,39.59,0,0,1,38.31,11.1c.21,4.78.2,5.44-.37,13.63,2.75,0,6.09,1.18,8.84,1.18a45.92,45.92,0,0,0,.88-9.32A52.51,52.51,0,0,0,46.48,7.07Z" style="fill:#fff"></path>
          <path d="M22.34,53.41a45.92,45.92,0,0,1,.88-9.32c2.75,0,6.38.88,9.13.88.1,4.75.11,11,.61,15.73A39.55,39.55,0,0,0,35,70a12.54,12.54,0,0,1-6-1.66,22.9,22.9,0,0,1-5.74-5.11A56.56,56.56,0,0,1,22.34,53.41Zm1.18,9.52a20.34,20.34,0,0,0,4.27,3.94,12.6,12.6,0,0,0,5.74,2.25A39.59,39.59,0,0,1,31.69,58.9c-.21-4.78-.2-5.44.37-13.63-2.75,0-6.09-1.18-8.84-1.18a45.92,45.92,0,0,0-.88,9.32A52.51,52.51,0,0,0,23.52,62.93Z" style="fill:#fff"></path>
          <path d="M29.4,56.63A46.32,46.32,0,0,1,27,47.57c2.58-.94,6.3-1.35,8.88-2.29,1.71,4.43,3.86,10.28,5.95,14.57a39.9,39.9,0,0,0,5.1,8,12.58,12.58,0,0,1-6.24.51,22.71,22.71,0,0,1-7.14-2.84A56.38,56.38,0,0,1,29.4,56.63Zm4.36,8.55a20.63,20.63,0,0,0,5.36,2.24,12.62,12.62,0,0,0,6.17.15,39.57,39.57,0,0,1-5.23-9c-1.82-4.41-2-5-4.32-12.93-2.58.94-6.12,1-8.7,1.91a46.32,46.32,0,0,0,2.36,9.06A53.32,53.32,0,0,0,33.76,65.18Z" style="fill:#fff"></path>
          <path d="M40.6,13.38a46.22,46.22,0,0,1,2.36,9c-2.58.94-6.3,1.36-8.88,2.3-1.71-4.43-3.86-10.28-5.95-14.58a40.47,40.47,0,0,0-5.1-8,12.57,12.57,0,0,1,6.24-.5,22.47,22.47,0,0,1,7.14,2.84A56.38,56.38,0,0,1,40.6,13.38ZM36.24,4.83a20.29,20.29,0,0,0-5.36-2.24,12.62,12.62,0,0,0-6.17-.15,39.57,39.57,0,0,1,5.23,9c1.82,4.41,2,5,4.32,12.93,2.58-.94,6.12-1,8.7-1.92a46.22,46.22,0,0,0-2.36-9A52.91,52.91,0,0,0,36.24,4.83Z" style="fill:#fff"></path>
          <path d="M37.13,57.24a46.85,46.85,0,0,1-5.31-7.7c2.1-1.77,5.45-3.43,7.56-5.19C42.5,47.92,46.52,52.68,50,56a39.46,39.46,0,0,0,7.54,5.81,12.47,12.47,0,0,1-5.69,2.61,22.45,22.45,0,0,1-7.69-.22A56.73,56.73,0,0,1,37.13,57.24Zm7,6.54a20.36,20.36,0,0,0,5.8.27,12.4,12.4,0,0,0,5.84-2,39.47,39.47,0,0,1-8-6.64c-3.23-3.53-3.65-4-8.49-10.68-2.1,1.77-5.42,3-7.52,4.78a46.85,46.85,0,0,0,5.31,7.7A53.68,53.68,0,0,0,44.16,63.78Z" style="fill:#fff"></path>
          <path d="M32.87,12.76a46.52,46.52,0,0,1,5.31,7.71c-2.1,1.77-5.45,3.42-7.56,5.19C27.5,22.09,23.48,17.32,20,14A39.46,39.46,0,0,0,12.5,8.19a12.58,12.58,0,0,1,5.69-2.61,22.68,22.68,0,0,1,7.69.23A57.35,57.35,0,0,1,32.87,12.76Zm-7-6.54A20.73,20.73,0,0,0,20,6a12.63,12.63,0,0,0-5.84,2,39.83,39.83,0,0,1,8,6.65c3.23,3.52,3.65,4,8.49,10.68,2.1-1.77,5.42-3,7.52-4.78a46.52,46.52,0,0,0-5.31-7.71A54.37,54.37,0,0,0,25.84,6.22Z" style="fill:#fff"></path>
          <path d="M44.61,55.17A45.83,45.83,0,0,1,37,49.75c1.38-2.38,4-5.09,5.33-7.47,4.16,2.29,9.56,5.4,13.93,7.34a40.08,40.08,0,0,0,9.07,2.88,12.51,12.51,0,0,1-4.45,4.4,22.84,22.84,0,0,1-7.3,2.42A56.28,56.28,0,0,1,44.61,55.17Zm8.84,3.74A20.33,20.33,0,0,0,59,57.18a12.39,12.39,0,0,0,4.82-3.84A40.14,40.14,0,0,1,54,49.82c-4.24-2.21-4.81-2.55-11.62-7.13C41,45.07,38.36,47.37,37,49.75a45.83,45.83,0,0,0,7.63,5.42A52.78,52.78,0,0,0,53.45,58.91Z" style="fill:#fff"></path>
          <path d="M25.39,14.83A46.49,46.49,0,0,1,33,20.26c-1.38,2.38-4,5.08-5.33,7.46-4.16-2.29-9.56-5.39-13.93-7.34A40.08,40.08,0,0,0,4.69,17.5a12.48,12.48,0,0,1,4.45-4.39,22.36,22.36,0,0,1,7.3-2.42A56.23,56.23,0,0,1,25.39,14.83Zm-8.84-3.74A20.68,20.68,0,0,0,11,12.82a12.52,12.52,0,0,0-4.82,3.85A39.73,39.73,0,0,1,16,20.19c4.24,2.21,4.81,2.54,11.62,7.13C29,24.94,31.64,22.64,33,20.26a46.49,46.49,0,0,0-7.63-5.43A53.63,53.63,0,0,0,16.55,11.09Z" style="fill:#fff"></path>
          <path d="M50.93,50.67a46.08,46.08,0,0,1-9-2.49c.48-2.71,2-6.13,2.46-8.84,4.69.73,10.83,1.8,15.6,2.14a39.87,39.87,0,0,0,9.51-.4,12.63,12.63,0,0,1-2.68,5.66,22.49,22.49,0,0,1-6,4.76A56,56,0,0,1,50.93,50.67Zm9.58.49a20.24,20.24,0,0,0,4.62-3.52,12.39,12.39,0,0,0,3.21-5.26,39.65,39.65,0,0,1-10.38,0c-4.74-.62-5.39-.74-13.36-2.72-.48,2.7-2.22,5.78-2.7,8.49a46.08,46.08,0,0,0,9,2.49A53,53,0,0,0,60.51,51.16Z" style="fill:#fff"></path>
          <path d="M19.07,19.34a46.08,46.08,0,0,1,9,2.49c-.48,2.7-2,6.13-2.46,8.83C21,29.93,14.81,28.87,10,28.53a39.87,39.87,0,0,0-9.51.4,12.58,12.58,0,0,1,2.68-5.66,22.76,22.76,0,0,1,6-4.77A56,56,0,0,1,19.07,19.34Zm-9.58-.5a20.6,20.6,0,0,0-4.62,3.53,12.39,12.39,0,0,0-3.21,5.26A39.22,39.22,0,0,1,12,27.6c4.74.62,5.39.74,13.36,2.72.48-2.71,2.22-5.79,2.7-8.49a46.08,46.08,0,0,0-9-2.49A53.9,53.9,0,0,0,9.49,18.84Z" style="fill:#fff"></path>
          <path d="M55.33,44.28A45.41,45.41,0,0,1,46,45c-.48-2.7-.24-6.43-.72-9.14,4.66-.92,10.79-2,15.39-3.33a40.38,40.38,0,0,0,8.8-3.62,12.61,12.61,0,0,1-.59,6.23,22.36,22.36,0,0,1-4,6.54A56.11,56.11,0,0,1,55.33,44.28Zm9.17-2.82a20.31,20.31,0,0,0,3.14-4.89,12.58,12.58,0,0,0,1.21-6,39.64,39.64,0,0,1-9.74,3.58c-4.67,1-5.32,1.14-13.49,2,.48,2.71-.1,6.2.38,8.9a45.41,45.41,0,0,0,9.33-.74A53.4,53.4,0,0,0,64.5,41.46Z" style="fill:#fff"></path>
          <path d="M14.67,25.73A46.11,46.11,0,0,1,24,25c.48,2.71.24,6.44.72,9.14-4.66.92-10.79,2-15.39,3.34a40.38,40.38,0,0,0-8.8,3.62,12.61,12.61,0,0,1,.59-6.23,22.22,22.22,0,0,1,4-6.54A56.11,56.11,0,0,1,14.67,25.73ZM5.5,28.54a20.51,20.51,0,0,0-3.14,4.89,12.63,12.63,0,0,0-1.21,6,39.69,39.69,0,0,1,9.74-3.59c4.67-1,5.32-1.14,13.49-2-.48-2.71.1-6.2-.38-8.91a46.11,46.11,0,0,0-9.33.75A54.27,54.27,0,0,0,5.5,28.54Z" style="fill:#fff"></path>
          <path d="M57.27,36.77a45.82,45.82,0,0,1-8.51,3.89c-1.37-2.38-2.43-6-3.8-8.35,4.06-2.45,9.45-5.58,13.32-8.39a40.39,40.39,0,0,0,7-6.42,12.56,12.56,0,0,1,1.58,6.06,22.34,22.34,0,0,1-1.56,7.53A56.45,56.45,0,0,1,57.27,36.77ZM64.93,31a20.53,20.53,0,0,0,1.28-5.66,12.61,12.61,0,0,0-.93-6.1,39.62,39.62,0,0,1-7.93,6.7c-4,2.57-4.61,2.89-12,6.5,1.38,2.38,2,5.86,3.4,8.24a45.82,45.82,0,0,0,8.51-3.89A53.46,53.46,0,0,0,64.93,31Z" style="fill:#fff"></path>
          <path d="M12.73,33.24a45.82,45.82,0,0,1,8.51-3.89c1.37,2.38,2.43,6,3.8,8.34-4.06,2.46-9.45,5.59-13.32,8.4a39.94,39.94,0,0,0-7,6.41,12.49,12.49,0,0,1-1.58-6,22.29,22.29,0,0,1,1.56-7.53A55.66,55.66,0,0,1,12.73,33.24ZM5.07,39a20.61,20.61,0,0,0-1.28,5.67,12.64,12.64,0,0,0,.93,6.1,39.29,39.29,0,0,1,7.93-6.7c4-2.57,4.61-2.9,12-6.5-1.38-2.38-2-5.86-3.4-8.24a45.82,45.82,0,0,0-8.51,3.89A53.39,53.39,0,0,0,5.07,39Z" style="fill:#fff"></path>
          <path d="M56.53,29a45.61,45.61,0,0,1-6.67,6.57c-2.1-1.76-4.32-4.78-6.42-6.54,3-3.7,7-8.48,9.64-12.44A40.17,40.17,0,0,0,57.5,8.19a12.5,12.5,0,0,1,3.55,5.15A22.39,22.39,0,0,1,62.17,21,56.88,56.88,0,0,1,56.53,29Zm5.22-8A20.69,20.69,0,0,0,61,15.23a12.5,12.5,0,0,0-2.95-5.42,39.51,39.51,0,0,1-5.16,9c-2.91,3.79-3.34,4.3-9,10.21,2.11,1.77,3.91,4.82,6,6.58A45.61,45.61,0,0,0,56.53,29,53.53,53.53,0,0,0,61.75,21Z" style="fill:#fff"></path>
          <path d="M13.47,41a46.64,46.64,0,0,1,6.67-6.57c2.1,1.77,4.32,4.78,6.42,6.55-3,3.7-7,8.48-9.64,12.44a39.85,39.85,0,0,0-4.42,8.43A12.44,12.44,0,0,1,9,56.66a22.3,22.3,0,0,1-1.12-7.6A57,57,0,0,1,13.47,41ZM8.25,49A20.69,20.69,0,0,0,9,54.78a12.47,12.47,0,0,0,2.95,5.41,39.73,39.73,0,0,1,5.16-9c2.91-3.79,3.34-4.29,9-10.21-2.11-1.76-3.91-4.81-6-6.58A46.64,46.64,0,0,0,13.47,41,53.12,53.12,0,0,0,8.25,49Z" style="fill:#fff"></path>
          <path d="M53.19,22a45.77,45.77,0,0,1-4,8.45c-2.59-.94-5.7-3-8.28-3.95,1.53-4.49,3.65-10.35,4.81-15A40,40,0,0,0,47,2.11a12.47,12.47,0,0,1,5.1,3.63,22.3,22.3,0,0,1,3.65,6.77A56.07,56.07,0,0,1,53.19,22Zm2.15-9.36a20.33,20.33,0,0,0-2.66-5.16,12.54,12.54,0,0,0-4.63-4.07,39.57,39.57,0,0,1-1.77,10.23c-1.44,4.56-1.67,5.18-5,12.68,2.58.94,5.31,3.19,7.9,4.13a45.77,45.77,0,0,0,4-8.45A52.9,52.9,0,0,0,55.34,12.68Z" style="fill:#fff"></path>
          <path d="M16.81,48a45.85,45.85,0,0,1,4-8.46c2.59.94,5.7,3,8.28,4-1.53,4.49-3.65,10.35-4.81,15A40,40,0,0,0,23,67.89a12.54,12.54,0,0,1-5.1-3.62,22.41,22.41,0,0,1-3.65-6.77A55.82,55.82,0,0,1,16.81,48Zm-2.15,9.35a20.33,20.33,0,0,0,2.66,5.16A12.55,12.55,0,0,0,22,66.56a39.5,39.5,0,0,1,1.77-10.23c1.44-4.56,1.67-5.18,5-12.69-2.58-.94-5.31-3.19-7.9-4.13a45.85,45.85,0,0,0-4,8.46A53,53,0,0,0,14.66,57.32Z" style="fill:#fff"></path>
          <circle cx="35" cy="35" r="8.83" style="fill:none;stroke:#fff;stroke-miterlimit:10;stroke-width:0.5px"></circle>
        </g>
      </g>
      <g id="mech_air" data-name="mech air">
        <path d="M72.94,45.63V32L67.86,45.63H64.79L59.72,32V45.63H52.83V22.89h9.51l4,10.91,4-10.91h9.51V45.63Z" style="fill:none;stroke:#fff;stroke-miterlimit:10"></path>
        <path d="M80,45.63V22.89H97.23v6H86.86v2.25H97v6H86.86v2.49H97.23v6Z" style="fill:none;stroke:#fff;stroke-miterlimit:10"></path>
        <path d="M97.06,34.28c0-7,5.38-11.76,12.51-11.76a10.59,10.59,0,0,1,10.32,6.61L114,31.89a4.82,4.82,0,0,0-4.39-3.31,5.45,5.45,0,0,0-5.53,5.7A5.44,5.44,0,0,0,109.57,40,4.82,4.82,0,0,0,114,36.66l5.93,2.73A10.72,10.72,0,0,1,109.57,46C102.44,46,97.06,41.26,97.06,34.28Z" style="fill:none;stroke:#fff;stroke-miterlimit:10"></path>
        <path d="M135.11,45.63v-8.7H127v8.7h-6.88V22.89H127v8h8.15v-8H142V45.63Z" style="fill:none;stroke:#fff;stroke-miterlimit:10"></path>
        <path d="M159.53,45.63,158.72,43h-8.19l-.81,2.66h-7.81l8.39-22.74H159l8.39,22.74Zm-4.9-16L152.38,37h4.49Z" style="fill:none;stroke:#fff;stroke-miterlimit:10"></path>
        <path d="M167.2,45.63V22.89h6.89V45.63Z" style="fill:none;stroke:#fff;stroke-miterlimit:10"></path>
        <path d="M188.92,45.63l-3.14-7.16h-2.49v7.16h-6.88V22.89h12.13c5.32,0,8.18,3.55,8.18,7.81a7.31,7.31,0,0,1-4.09,6.88l4.13,8.05Zm.81-15c0-1.22-1.09-1.77-2.25-1.77h-4.19v3.58h4.19C188.64,32.47,189.73,31.92,189.73,30.66Z" style="fill:none;stroke:#fff;stroke-miterlimit:10"></path>
      </g>
    </g>
  </g>
</svg>
